<svg width="1296" height="218" viewBox="0 0 1296 218" fill="none" xmlns="http://www.w3.org/2000/svg">
<path fill-rule="evenodd" clip-rule="evenodd" d="M432.461 191.882L460.279 164.604C460.161 164.667 460.053 164.741 459.932 164.802C453.543 168.008 446.324 169.983 438.6 170.407C438.258 177.949 436.227 184.996 432.854 191.237C432.732 191.461 432.585 191.664 432.461 191.882ZM431.184 190.333C434.529 184.148 436.369 177.47 436.701 170.46C436.296 170.468 435.893 170.497 435.482 170.497H433.312C420.839 170.497 409.544 166.467 400.698 159.691V164.08C400.698 174.535 394.433 182.125 385.806 182.125C377.178 182.125 370.916 174.535 370.916 164.08V100.691C370.916 92.0608 375.19 85.396 381.534 83.3281V49.4695C381.534 49.3509 381.545 49.2376 381.545 49.1191C374.015 49.5195 366.96 51.3609 360.532 54.6037C357.759 56.0052 355.122 57.6727 352.692 59.5588C352.26 59.896 351.846 60.2516 351.428 60.6046L351.391 60.6362C351.388 60.6415 351.383 60.6389 351.378 60.6415C340.857 69.4559 334.842 82.4588 334.842 96.6049V168.163C334.842 194.841 356.753 215.738 384.723 215.738H386.893C399.942 215.738 412.094 211.12 421.227 202.901V202.899L424.4 199.788C425.04 199.092 425.664 198.378 426.265 197.643C428.161 195.328 429.815 192.867 431.184 190.333ZM358.836 53.3867C359.12 53.2365 359.386 53.0574 359.676 52.9125C366.178 49.6302 373.594 47.6386 381.603 47.225C381.94 39.3933 383.994 32.1411 387.454 25.7898C387.586 25.5527 387.744 25.3367 387.878 25.1022L358.836 53.3867ZM381.534 121.03V85.3512C376.299 87.4007 372.812 93.2225 372.812 100.691V164.08C372.812 173.437 378.276 180.228 385.806 180.228C393.335 180.228 398.802 173.437 398.802 164.08V158.129C388.173 149.128 381.534 135.969 381.534 121.03ZM436.772 132.84V96.6049C436.772 82.8328 430.9 70.6308 421.4 62.0193V116.944C421.4 126.299 426.865 133.093 434.394 133.093C435.216 133.093 436.006 132.995 436.772 132.84ZM421.4 53.5526V59.5035C432.029 68.4996 438.668 81.6606 438.668 96.6049V132.284C443.904 130.232 447.391 124.41 447.391 116.944V53.5526C447.391 44.1956 441.926 37.407 434.394 37.407C426.865 37.407 421.4 44.1956 421.4 53.5526ZM487.257 49.4695V121.03C487.257 136.939 479.738 150.824 467.877 159.812C467.858 159.836 467.866 159.873 467.843 159.894L424.729 202.169C424.266 202.638 423.8 203.099 423.318 203.552L422.578 204.279C422.554 204.303 422.517 204.292 422.493 204.313C413.284 212.593 400.83 217.632 386.893 217.632H384.723C355.689 217.632 332.946 195.902 332.946 168.166V96.6049C332.946 81.3971 339.435 68.223 350.029 59.2954C350.04 59.2849 350.035 59.2638 350.045 59.2532L396.25 14.2515C396.271 14.2331 396.303 14.2384 396.324 14.2226C405.581 5.35026 418.527 0 433.312 0H435.482C464.517 0 487.257 21.7303 487.257 49.4695ZM161.827 168.772H125.476L105.217 188.25L115.274 213.42L161.827 168.772ZM113.428 213.918L103.739 189.669L78.5154 213.918H113.428ZM76.5482 213.136L102.968 187.738L90.9984 157.786L90.9878 167.705C91.08 168.037 91.0589 168.39 90.7929 168.642L68.0182 190.552L76.5482 213.136ZM67.2756 188.589L87.8776 168.772H59.7911L67.2756 188.589ZM65.7876 190.02L57.7633 168.772H52.2803L42.1596 178.6L42.1201 212.785L65.7876 190.02ZM51.5007 148.069V93.0539L43.9794 108.062C43.9162 108.214 43.8108 108.278 43.6686 108.251L40.3846 107.474C40.2688 107.427 40.2319 107.327 40.2187 107.203V50.8815H4.52655V212.461L40.2635 177.752L40.2767 166.472L51.5007 148.069ZM40.2609 180.444L5.79591 213.918H40.2214L40.2609 180.444ZM5.76431 48.9505H41.2247L51.5007 39.0666V4.86818L5.76431 48.9505ZM51.5007 41.7431L42.2834 50.6101C42.2386 50.6523 42.1675 50.6444 42.1175 50.676V105.712C42.1122 105.875 42.1491 105.957 42.2623 105.967L42.6916 106.07C42.8101 106.099 42.8918 106.036 42.9418 105.896L51.5007 88.8232V41.7431ZM90.9852 32.9761V48.9531H96.7737L117.758 7.08626L90.9852 32.9761ZM91.0036 152.687L104.445 186.319L123.946 167.568L100.258 104.848L91.0431 119.958L91.0036 152.687ZM95.8203 50.8498H90.9852V58.8871L91.7068 59.0583L95.8203 50.8498ZM51.5007 152.191L51.3875 151.894L42.1728 167.007L42.1623 175.908L51.5007 166.835V152.191ZM164.508 168.874L115.809 215.586C115.793 215.599 115.772 215.594 115.759 215.604C115.688 215.673 115.617 215.738 115.524 215.767C115.461 215.791 115.398 215.817 115.329 215.817H115.227C115.195 215.82 115.171 215.854 115.14 215.854C115.079 215.854 115.024 215.828 114.966 215.817H76.0136C75.9846 215.82 75.3552 215.783 75.1656 214.845L66.5303 191.982C66.5303 191.982 41.9674 215.588 41.9542 215.599C41.8436 215.728 41.6909 215.817 41.5065 215.817L3.35727 215.823C2.74629 215.802 2.62251 215.791 2.63041 214.458V213.815C2.63041 213.815 2.61988 49.6776 2.63041 49.6091V49.5617C2.63041 49.3799 2.71995 49.2271 2.84636 49.1165C2.85953 49.098 51.5244 2.16539 51.5244 2.16539C51.7404 1.9046 52.2171 1.9046 52.2355 1.9046H90.5401C91.051 1.89933 91.0142 2.43936 90.9852 2.7344C90.9588 3.02944 90.9852 30.2918 90.9852 30.2918L120.072 2.16012C120.154 2.08109 120.496 1.9046 120.799 1.9046H161.972C162.193 1.9046 162.398 2.02577 162.506 2.21808C162.614 2.41038 162.609 2.64483 162.493 2.8345L124.02 65.9681L164.766 167.934C164.784 167.979 164.911 168.548 164.508 168.874ZM281.837 42.0671L273.143 50.6048C273.028 50.7181 272.885 50.784 272.73 50.8288V134.955C274.007 134.668 275.169 134.228 276.185 133.601L278.861 131.012C278.929 130.943 279.024 130.956 279.103 130.911C279.999 129.692 280.686 128.23 281.136 126.517C281.581 124.829 281.837 122.937 281.837 120.801V42.0671ZM267.555 193.629L298.12 164.043C290.959 167.815 282.392 170.028 272.73 170.373V172.041C272.73 180.11 270.889 187.37 267.555 193.629ZM265.772 192.96C269.13 186.743 270.834 179.704 270.834 172.041V170.447C270.584 170.45 270.347 170.476 270.094 170.476H269.006C260.208 170.476 252.273 168.922 245.381 166.121L232.287 178.8C231.845 179.454 231.365 180.075 230.82 180.623C228.342 183.118 225.021 184.38 220.955 184.38C211.94 184.38 206.771 178.395 206.771 167.955V50.8815H171.076V172.041C171.076 198.176 190.904 215.738 220.415 215.738H221.5C236.493 215.738 249.149 211.294 258.103 202.891C258.464 202.554 258.793 202.19 259.138 201.84C259.165 201.811 259.154 201.763 259.186 201.732L260.352 200.604C262.465 198.276 264.282 195.712 265.772 192.96ZM172.335 48.9505H207.224L217.774 38.7452V4.72593L172.335 48.9505ZM270.834 135.224V50.8815H257.263V120.801C257.263 130.166 261.624 135.326 269.549 135.326C270.002 135.326 270.407 135.258 270.834 135.224ZM234.391 174.077L243.422 165.331C240.43 163.969 237.67 162.349 235.142 160.5V167.955C235.142 170.115 234.886 172.175 234.391 174.077ZM217.774 124.884V41.4296L208.667 50.236V167.955C208.667 177.325 213.031 182.483 220.955 182.483C224.581 182.483 227.418 181.353 229.477 179.288C229.601 179.161 229.706 179.011 229.825 178.882C229.835 178.642 229.925 178.405 230.109 178.226L230.899 177.459C231.597 176.364 232.163 175.118 232.542 173.674C232.988 171.983 233.243 170.097 233.243 167.955V158.982C223.462 150.956 217.774 139.165 217.774 124.884ZM257.263 28.6322V48.9505H272.074L281.837 39.3643V4.76808L257.263 28.6322ZM321.326 2.86875C321.321 2.96622 321.326 123.182 321.326 123.182V124.884C321.326 133.053 319.443 140.395 316.033 146.707C314.219 150.063 311.935 153.095 309.278 155.819C309.241 155.874 309.252 155.95 309.199 156L260.832 202.822C260.36 203.31 259.899 203.808 259.404 204.274C250.392 212.733 237.299 217.632 221.497 217.632H220.412C189.769 217.632 169.18 199.311 169.18 172.041V50.4152L169.177 49.3325C169.196 49.3114 169.377 49.1323 169.404 49.1138L217.745 2.06002C218.024 1.80449 218.437 1.79396 218.453 1.79659H256.123C256.492 1.76498 257.337 1.86772 257.263 3.17169V25.9426L281.86 2.06002C281.9 2.02051 281.966 1.95465 282.011 1.92304C282.121 1.80186 282.271 1.79659 282.448 1.79659H282.519C282.537 1.79396 282.55 1.79396 282.569 1.79659H320.27C321.321 1.79659 321.35 2.26023 321.326 2.86875ZM651.468 46.8562L647.641 50.6233C647.502 50.7603 647.32 50.834 647.128 50.8683L644.178 68.6972L646.109 77.3667L646.857 77.3403L651.468 46.8562ZM620.355 212.675L665.278 168.663H631.801L626.834 173.526L620.355 212.675ZM624.54 175.776L585.609 213.918H618.23L624.54 175.776ZM629.099 159.847L627.368 170.305L630.563 167.17L629.099 159.847ZM583.847 212.943L625.072 172.549L628.045 154.591L617.298 100.938H616.553L603.087 168.171C603.066 168.279 602.995 168.361 602.924 168.442C602.879 168.527 602.887 168.629 602.813 168.698L579.528 191.374L583.847 212.943ZM579.078 189.119L600.085 168.663H574.977L579.078 189.119ZM577.455 190.697L573.044 168.663H566.545L563.453 171.688L555.331 212.243L577.455 190.697ZM561.048 174.048L520.353 213.918H553.061L561.048 174.048ZM518.699 212.838L561.72 170.684L564.053 159.043L551.081 80.6437L540.878 126.475L536.981 126.341L525.57 50.892H491.9L518.699 212.838ZM492.89 48.9505H526.67C526.681 48.9505 526.689 48.961 526.699 48.961H526.789L543.161 32.7917L538.484 4.52309L492.89 48.9505ZM579.686 29.0089L582.435 47.1882L597.868 31.8776L603.74 5.50305L579.686 29.0089ZM640.217 50.8999L643.075 63.7421L645.2 50.8999H640.217ZM597.091 35.3628L582.791 49.5511L586.491 74.0106L587.234 77.3482L587.744 77.3667L597.091 35.3628ZM543.546 35.1231L527.861 50.6128C527.755 50.7181 527.624 50.7866 527.481 50.8314L538.619 124.497L539.369 124.523L550.248 75.6412L543.546 35.1231ZM564.928 164.33L564.127 168.326L565.328 167.149C565.344 167.133 565.373 167.141 565.388 167.128L564.928 164.33ZM634.979 27.3782L639.783 48.9505H646.591L651.95 43.6766L657.772 5.17112L634.979 27.3782ZM695.542 3.472L668.322 167.984V167.989L668.296 168.15C668.275 168.271 668.201 168.366 668.125 168.45C668.085 168.521 668.093 168.606 668.035 168.663L620.234 215.499C620.045 215.68 619.802 215.773 619.557 215.773C619.539 215.773 619.523 215.752 619.502 215.752C619.442 215.77 619.389 215.817 619.32 215.817H583.307C583.289 215.817 583.275 215.838 583.26 215.838C583.244 215.838 583.231 215.817 583.212 215.817H582.991C582.701 215.817 582.448 215.612 582.39 215.325L582.301 214.88C582.301 214.872 582.296 214.866 582.296 214.856L577.908 192.949L554.752 215.501C554.699 215.551 554.625 215.541 554.562 215.575C554.449 215.715 554.301 215.817 554.114 215.817H518.051C518.032 215.817 518.019 215.838 518.001 215.838C517.982 215.838 517.974 215.817 517.956 215.817H517.787C517.587 215.817 517.435 215.702 517.321 215.549C517.319 215.546 517.316 215.549 517.313 215.546C517.298 215.533 517.306 215.509 517.29 215.491C517.253 215.43 517.198 215.38 517.184 215.306L517.163 215.177C517.108 215.024 517.066 214.893 517.092 214.735L489.946 50.697C489.804 50.5943 489.682 50.4573 489.614 50.2887C489.464 49.9252 489.553 49.509 489.835 49.2324L538.268 2.03895C538.271 2.03631 538.276 2.03895 538.279 2.03368C538.284 2.02841 538.279 2.01787 538.284 2.00997C538.4 1.87299 538.571 1.79396 538.75 1.79396H538.882C538.932 1.79132 538.966 1.78869 539.019 1.79396H574.911C574.959 1.79132 574.996 1.79132 575.043 1.79396C575.206 1.79396 575.348 1.86508 575.459 1.97045C575.52 2.00733 575.601 1.9968 575.659 2.05475C575.951 2.35243 575.944 2.77128 575.772 3.12954L579.328 26.6591L604.523 2.04158C604.554 2.0126 604.596 2.02314 604.631 1.9968C604.741 1.88089 604.883 1.79396 605.057 1.79396H605.136C605.189 1.79132 605.226 1.78869 605.276 1.79396H628.522C628.611 1.78078 628.683 1.78078 628.772 1.79396H628.796C628.962 1.79396 629.099 1.87035 629.209 1.97836C629.243 2.0047 629.296 1.9968 629.33 2.02841C629.57 2.27076 629.596 2.58951 629.531 2.89773L634.49 25.1628L658.21 2.04948C658.26 1.99943 658.333 2.0126 658.391 1.97572C658.505 1.86772 658.647 1.79396 658.807 1.79396H658.85C658.879 1.79396 658.902 1.79132 658.936 1.79396H694.795C695.103 1.73337 695.419 1.76761 695.656 2.00733C696.03 2.38931 696.024 2.99783 695.643 3.3719L695.542 3.472ZM789.027 85.4223C789.027 90.4512 786.199 93.6993 781.798 93.6993C777.037 93.6993 774.63 89.8743 774.63 85.4223C774.63 80.4462 777.4 77.1454 781.798 77.1454C786.199 77.1454 789.027 80.4462 789.027 85.4223ZM791.698 85.2669C791.698 79.1896 788.085 74.7903 781.798 74.7903C775.515 74.7903 771.957 79.6611 771.957 85.6331C771.957 91.4496 775.409 96.057 781.54 96.057C783.213 96.057 784.732 95.7409 785.938 95.164L777.35 112.398H780.021L789.602 93.0723C791.121 89.9797 791.698 87.6747 791.698 85.2669ZM764.886 104.45H768.765V100.575H764.886V104.45ZM757.662 106.268V103.912H752.69V92.0766H750.02V103.912H738.082L751.8 75.1038H748.969L735.251 103.912V106.268H750.02V112.398H752.69V106.268H757.662ZM727.182 85.4223C727.182 90.4512 724.356 93.6993 719.955 93.6993C715.191 93.6993 712.782 89.8743 712.782 85.4223C712.782 80.4462 715.557 77.1454 719.955 77.1454C724.356 77.1454 727.182 80.4462 727.182 85.4223ZM729.855 85.2669C729.855 79.1896 726.241 74.7903 719.955 74.7903C713.672 74.7903 710.114 79.6611 710.114 85.6331C710.114 91.4496 713.566 96.057 719.695 96.057C721.369 96.057 722.889 95.7409 724.093 95.164L715.505 112.398H718.178L727.758 93.0723C729.278 89.9797 729.855 87.6747 729.855 85.2669ZM789.86 55.2965C791.7 53.3287 792.488 51.0026 792.488 47.5254V42.1935H781.251V44.654H789.762V47.3462C789.762 50.1017 789.217 51.893 787.882 53.5263C786.307 55.4441 783.95 56.5426 781.411 56.5426C779.157 56.5426 777.061 55.689 775.512 54.1401C773.295 51.922 773.105 49.5301 773.105 42.7125C773.105 35.8923 773.295 33.5004 775.512 31.2823C777.061 29.7333 779.157 28.8798 781.411 28.8798C785.583 28.8798 788.751 31.5615 789.673 35.8818L789.702 36.0082H792.43L792.398 35.8212C791.4 30.1074 787.086 26.4167 781.411 26.4167C778.354 26.4167 775.496 27.589 773.368 29.7175C770.379 32.7074 770.379 35.6368 770.379 42.7125C770.379 49.7856 770.379 52.7149 773.368 55.7048C775.496 57.8334 778.351 59.003 781.411 59.003C784.65 59.003 787.732 57.6516 789.86 55.2965ZM746.867 29.1459H756.064C760.404 29.1459 762.895 31.4245 762.895 35.4023C762.895 39.3801 760.404 41.6588 756.064 41.6588H746.867V29.1459ZM758.4 44.0323C762.927 43.1788 765.626 39.9517 765.626 35.3575C765.626 30.0889 761.994 26.6854 756.374 26.6854H744.139V58.7369H746.867V44.1192H755.339L762.869 58.65L762.913 58.7369H766.082L758.4 44.0323ZM732.562 31.2823C734.777 33.5004 734.961 35.8923 734.961 42.7125C734.961 49.5301 734.777 51.922 732.562 54.1401C731.008 55.689 728.912 56.5426 726.658 56.5426C724.403 56.5426 722.307 55.689 720.758 54.1401C718.541 51.922 718.354 49.5301 718.354 42.7125C718.354 35.8923 718.541 33.5004 720.758 31.2823C722.307 29.7333 724.403 28.8798 726.658 28.8798C728.912 28.8798 731.008 29.7333 732.562 31.2823ZM734.7 55.7048C737.692 52.7149 737.692 49.7856 737.692 42.7125C737.692 35.6368 737.692 32.7074 734.7 29.7175C732.575 27.589 729.718 26.4167 726.658 26.4167C723.6 26.4167 720.743 27.589 718.615 29.7175C715.626 32.7074 715.626 35.6368 715.626 42.7125C715.626 49.7882 715.626 52.7149 718.615 55.7048C720.743 57.8334 723.597 59.003 726.658 59.003C729.718 59.003 732.575 57.8334 734.7 55.7048ZM707.117 58.7369H710.735V55.1174H707.117V58.7369ZM711.802 10.9745H792.972V7.75801H711.802V10.9745Z" fill="white"/>
<g clip-path="url(#clip0_255_3449)">
<path d="M940 148.469H958.966L984.743 201.261V148.469H996.318V213.318H978.618L951.575 158.296V213.318H940V148.469Z" fill="white"/>
<path d="M1049.45 188.624L1049.35 191.83H1015.4C1015.11 198.834 1020.16 204.758 1027.75 204.758C1031.65 204.758 1036.21 203.596 1037.88 198.044H1048.77C1046.82 207.278 1039.82 214.375 1027.86 214.375C1012.79 214.375 1004.13 203.004 1004.13 189.193C1004.13 174.615 1012.79 164.115 1027.08 164.115C1037.1 164.115 1049.45 170.143 1049.45 188.612V188.624ZM1015.89 183.861H1037.88C1037.88 177.635 1033.11 173.163 1027.37 173.163C1020.85 173.163 1016.48 177.926 1015.89 183.861Z" fill="white"/>
<path d="M1085.04 203.689V213.214C1083.09 213.504 1081.14 213.597 1079.2 213.597C1068.11 213.597 1061.2 208.73 1061.2 197.753V174.906H1053.91V168.587C1063.35 164.498 1063.93 154.3 1063.93 153.708H1074.53C1074.82 160.317 1072.88 163.232 1070.64 165.277H1084.44V174.906H1072.18V196.592C1072.18 202.225 1074.61 203.886 1081.33 203.886C1082.6 203.886 1083.76 203.793 1085.02 203.689H1085.04Z" fill="white"/>
<path d="M1150.5 213.318H1135.52L1126.77 177.926L1117.91 213.318H1102.84L1090.39 165.288H1102.75L1110.82 203.689L1120.26 165.288H1133.1L1142.74 203.689L1150.62 165.288H1162.88L1150.52 213.318H1150.5Z" fill="white"/>
<path d="M1164.68 189.228C1164.68 175.452 1172.89 164.08 1187.29 164.08C1201.69 164.08 1210.01 175.452 1210.01 189.228C1210.01 203.004 1201.98 214.375 1187.4 214.375C1172.81 214.375 1164.69 202.911 1164.69 189.228H1164.68ZM1199.36 189.425C1199.36 181.91 1196.14 174.104 1187.39 174.104C1178.63 174.104 1175.32 181.91 1175.32 189.425C1175.32 196.94 1178.25 204.258 1187.39 204.258C1196.52 204.258 1199.36 196.743 1199.36 189.425Z" fill="white"/>
<path d="M1263.81 185.511L1280.73 165.288H1293.86L1277.03 185.999L1296 213.318H1282.87L1269.84 193.781L1263.81 200.971V213.318H1252.63V148.469H1263.81V185.511Z" fill="white"/>
<path d="M1246.07 165.149C1234.5 161.92 1228.56 167.971 1227.31 172.641L1226.64 165.126H1216.68V213.492H1227.91V184.117C1227.91 177.031 1234.2 173.535 1239.15 174.081C1243.12 174.511 1244.67 175.719 1246.07 176.474V165.149Z" fill="white"/>
<path d="M1056.7 3.49626V115.133H943.486V3.49626H1056.7ZM1060.19 0H940V118.606H1060.19V0Z" fill="white"/>
<path d="M1060.22 3.48464H1175.76V115.133H1060.22V3.48464ZM1056.74 0V118.606H1179.25V0H1056.74Z" fill="white"/>
<path d="M1292.51 3.49626V115.133H1179.34V3.49626H1292.51ZM1296 0H1175.86V118.606H1296V0Z" fill="white"/>
<path d="M1005.82 25.1823C997.282 25.2056 988.717 28.2604 986.219 36.7978L985.335 26.704H971.924V91.8668H987.032V51.7237C987.032 44.766 992.901 38.7028 1000.18 38.6563C1007.66 38.575 1013.31 44.1039 1013.31 52.3625V91.8668H1028.63V52.5716C1028.42 37.0534 1023.12 25.1359 1005.81 25.1707L1005.82 25.1823Z" fill="white"/>
<path d="M1256.45 26.7271C1240.88 22.383 1232.88 30.537 1231.19 36.8094L1230.29 26.7039H1216.89V91.8086H1232V52.5251C1232 42.9888 1240.47 38.029 1247.13 38.7492C1252.48 39.3299 1254.56 40.9445 1256.45 41.9783V26.7271Z" fill="white"/>
<path d="M1121.28 25.1475C1112.37 25.1475 1104.63 30.781 1102.79 36.8094L1101.89 26.6923H1088.5V103.145H1103.58V82.6789C1104.77 87.5225 1111.85 92.3546 1121.69 92.3546C1143.06 92.3546 1151.22 75.8025 1151.22 59.146C1151.22 43.6858 1142.79 25.1359 1121.29 25.1359L1121.28 25.1475ZM1120.81 78.6948C1109.2 78.6948 1104 68.9726 1104 59.2389C1104 49.5051 1109.56 39.1557 1120.81 39.1557C1132.06 39.1557 1137.5 49.389 1137.5 59.2389C1137.5 69.0888 1132.3 78.6948 1120.81 78.6948Z" fill="white"/>
</g>
<defs>
<clipPath id="clip0_255_3449">
<rect width="356" height="214.387" fill="white" transform="translate(940)"/>
</clipPath>
</defs>
</svg>
